# xmcd CD database file
#
# Track frame offsets:
#	150
#	17030
#	32085
#	55567
#	78692
#	92307
#	95430
#	118210
#	133195
#	161192
#	174545
#	192052
#	219165
#
# Disc length: 3027 seconds
#
# Revision: 1
# Processed by: cddbd v1.5.1PL0 Copyright (c) Steve Scherf et al.
# Submitted via: CDex 1.51
#
DISCID=a60bd10d
DTITLE=山田かまち - かまち
DYEAR=1994
DGENRE=Rock
TTITLE0=愛をこわすような事が多すぎる
TTITLE1=10分でこの問題を
TTITLE2=愛する者はくじけない
TTITLE3=歩いてゆかなくちゃ
TTITLE4=岡さんというひとがいて
TTITLE5=虹
TTITLE6=もっと涙の感動が…
TTITLE7=真実をくれ
TTITLE8=嵐の日々
TTITLE9=黒い魔術師
TTITLE10=負け
TTITLE11=ある日
TTITLE12=ロックをこの体の中に
EXTD=YEAR: 1994
EXTT0=
EXTT1=
EXTT2=
EXTT3=
EXTT4=
EXTT5=
EXTT6=
EXTT7=
EXTT8=
EXTT9=
EXTT10=
EXTT11=
EXTT12=
PLAYORDER=
